<?xml version="1.0" encoding="UTF-8" standalone="no"?>
<!DOCTYPE svg PUBLIC "-//W3C//DTD SVG 1.1//EN" "http://www.w3.org/Graphics/SVG/1.1/DTD/svg11.dtd">
<svg width="100%" height="100%" viewBox="0 0 2936 1418" version="1.1" xmlns="http://www.w3.org/2000/svg" xmlns:xlink="http://www.w3.org/1999/xlink" xml:space="preserve" xmlns:serif="http://www.serif.com/" style="fill-rule:evenodd;clip-rule:evenodd;stroke-linejoin:round;stroke-miterlimit:2;">
    <g id="Artboard1" transform="matrix(1,0,0,1,-532.224827,-791.354804)">
        <rect x="532.225" y="791.355" width="2935.55" height="1417.29" style="fill:none;"/>
        <g transform="matrix(1.844839,0,0,1.844839,-11373.353258,-1939.333938)">
            <g transform="matrix(1,0,0,1,5451.670533,-382.989346)">
                <path d="M1689.728,2355.497C1684.847,2369.441 1681.012,2377.808 1681.012,2385.826C1681.012,2398.376 1687.287,2408.138 1705.764,2408.138C1734.35,2408.138 1734.35,2389.312 1721.451,2389.312C1716.571,2389.312 1715.176,2386.524 1715.176,2381.294C1715.176,2376.414 1719.708,2364.212 1722.497,2356.543L1752.826,2271.83C1758.404,2256.491 1762.936,2244.29 1762.936,2235.226C1762.936,2225.116 1757.01,2216.052 1744.46,2216.052C1719.011,2216.052 1713.782,2234.528 1724.24,2234.528C1727.029,2234.528 1728.772,2235.923 1728.772,2240.455C1728.772,2245.335 1723.892,2259.628 1719.708,2271.133L1689.728,2355.497Z" style="fill-rule:nonzero;"/>
            </g>
            <g transform="matrix(0.910794,0,0,0.993249,2202.85297,-784.589271)">
                <path d="M5072.259,2685.864C5109.457,2588.06 5138.576,2556.608 5168.401,2556.608C5186.466,2556.608 5195.691,2571.237 5195.691,2592.204C5195.691,2627.8 5167.632,2698.016 5148.798,2754.092C5145.723,2765.307 5139.957,2781.886 5139.957,2788.713C5139.957,2796.027 5141.879,2799.928 5146.876,2799.928C5160.278,2799.928 5176.41,2772.649 5188.84,2739.717C5194.457,2658.496 5247.177,2556.121 5300.583,2556.121C5323.261,2556.121 5337.483,2574.162 5337.483,2600.494C5337.483,2655.106 5283.286,2700.942 5230.243,2711.182C5227.937,2725.323 5226.784,2738.976 5226.784,2750.679C5226.784,2782.374 5238.559,2794.834 5255.612,2797.49C5292.417,2803.221 5318.468,2724.39 5326.435,2692.843C5341.801,2631.994 5361.51,2559.559 5401.63,2557.584C5429.861,2556.193 5416.236,2614.147 5409.701,2635.114L5405.539,2647.339C5433.552,2574.975 5461.439,2556.121 5488.497,2556.121C5497.722,2556.121 5502.719,2561.972 5502.719,2572.7C5502.719,2576.749 5502.002,2580.834 5500.752,2584.645C5497.336,2595.057 5489.945,2603.419 5482.347,2603.419C5474.66,2603.419 5470.816,2598.056 5462.744,2598.056C5461.926,2598.056 5461.076,2598.151 5460.194,2598.35C5442.007,2602.451 5410.169,2650.732 5364.346,2821.87L5326.293,2821.87C5326.293,2821.87 5417.478,2603.417 5392.678,2592.829C5379.381,2587.152 5370.02,2607.35 5362.71,2640.137C5346.235,2714.039 5323.161,2843.007 5238.699,2828.697C5211.114,2824.023 5191.441,2805.456 5188.687,2764.16C5174.123,2797.261 5153.854,2826.259 5129.964,2826.259C5109.592,2826.259 5102.674,2812.606 5102.674,2795.052C5102.674,2783.836 5107.67,2772.621 5113.82,2752.142C5134.576,2686.801 5155.717,2626.337 5155.717,2606.833C5155.717,2596.105 5153.026,2591.229 5147.645,2591.229C5136.114,2591.229 5109.977,2619.511 5074.615,2713.62C5063.468,2742.389 5051.552,2778.473 5038.484,2821.87L5000.815,2821.87L5031.949,2720.934C5046.171,2675.099 5062.699,2624.874 5062.699,2606.833C5062.699,2596.105 5060.008,2591.229 5054.243,2591.229C5039.252,2591.229 5003.506,2639.015 4948.157,2821.87L4910.488,2821.87L4961.225,2634.627C4965.838,2618.535 4971.219,2598.543 4971.219,2591.717C4971.219,2585.378 4969.297,2583.427 4966.222,2583.427C4954.691,2583.427 4913.948,2639.99 4913.948,2639.99C4931.629,2596.593 4960.457,2557.584 4988.516,2557.584C5002.353,2557.584 5008.887,2570.262 5008.887,2584.402C5008.887,2597.08 5003.122,2614.147 4996.587,2635.114L4976.369,2691.557C5016.343,2583.794 5044.249,2556.608 5074.999,2556.608C5089.989,2556.608 5098.446,2572.212 5098.446,2589.766C5098.446,2611.276 5081.042,2661.756 5072.259,2685.864ZM5298.277,2574.65C5270.987,2574.65 5244.849,2638.04 5233.318,2695.578C5274.446,2682.413 5310.961,2642.428 5310.961,2597.08C5310.961,2582.94 5307.886,2574.65 5298.277,2574.65Z"/>
            </g>
            <g transform="matrix(1,0,0,1,5430.817698,-382.989346)">
                <path d="M1913.886,2389.312C1909.005,2389.312 1907.611,2386.524 1907.611,2381.294C1907.611,2376.414 1911.794,2364.212 1914.583,2356.194L2000.697,2085.083C2000.697,2085.083 1947.304,2102.743 1944.68,2137.265L1915.629,2254.748L1914.931,2254.748C1915.977,2232.437 1906.913,2215.355 1883.556,2215.355C1835.099,2215.355 1778.972,2301.113 1778.972,2363.166C1778.972,2390.358 1789.779,2409.881 1810.348,2409.881C1856.374,2409.881 1881.813,2355.148 1881.813,2355.148C1876.933,2369.441 1873.446,2377.808 1873.446,2385.826C1873.446,2398.376 1879.722,2408.138 1898.198,2408.138C1926.436,2408.138 1926.784,2389.312 1913.886,2389.312ZM1824.989,2384.78C1816.623,2384.78 1813.485,2375.368 1813.485,2358.983C1813.485,2309.48 1855.667,2233.134 1886.694,2233.134C1898.198,2233.134 1902.381,2241.849 1902.381,2256.84C1902.381,2268.344 1899.592,2279.499 1895.758,2290.655C1882.162,2329.7 1845.557,2384.78 1824.989,2384.78Z" style="fill-rule:nonzero;"/>
            </g>
            <g transform="matrix(1,0,0,1,5393.632535,-382.989346)">
                <path d="M2065.184,2180.493C2078.431,2180.493 2087.495,2171.778 2087.495,2158.879C2087.495,2145.632 2078.431,2137.265 2065.184,2137.265C2051.936,2137.265 2042.872,2145.632 2042.872,2158.879C2042.872,2171.778 2051.936,2180.493 2065.184,2180.493ZM1990.58,2355.497C1985.7,2369.441 1981.865,2377.808 1981.865,2385.826C1981.865,2398.376 1988.14,2408.138 2006.617,2408.138C2035.203,2408.138 2035.203,2389.312 2022.304,2389.312C2017.424,2389.312 2016.029,2386.524 2016.029,2381.294C2016.029,2376.414 2020.561,2364.212 2023.35,2356.543L2053.679,2271.83C2059.257,2256.491 2063.789,2244.29 2063.789,2235.226C2063.789,2225.116 2057.863,2216.052 2045.313,2216.052C2019.864,2216.052 2014.635,2234.528 2025.093,2234.528C2027.882,2234.528 2029.625,2235.923 2029.625,2240.455C2029.625,2245.335 2024.744,2259.628 2020.561,2271.133L1990.58,2355.497Z" style="fill-rule:nonzero;"/>
            </g>
            <g transform="matrix(1,0,0,1,1711.887887,-801.84471)">
                <path d="M5833.499,2784.73C5819.106,2808.615 5799.635,2828.346 5768.148,2827.69C5746.19,2827.233 5736.425,2808.865 5736.425,2782.022C5736.425,2719.969 5792.551,2634.21 5841.008,2634.21C5864.365,2634.21 5873.778,2651.292 5872.384,2673.603L5873.429,2673.603L5883.539,2645.714C5897.484,2645.714 5920.143,2635.256 5920.143,2635.256L5869.943,2775.398C5867.154,2783.416 5857.538,2798.968 5862.274,2800.15C5899.274,2809.379 5915.818,2620.846 5996.673,2629.907C6027.003,2633.306 6013.92,2675.346 6007.994,2690.337L5991.912,2730.95C6028.516,2653.907 6054.011,2634.21 6082.248,2634.21C6098.285,2634.21 6107,2644.668 6107,2659.659C6107,2685.107 6081.551,2735.308 6064.469,2775.398C6061.68,2783.416 6056.451,2795.269 6056.451,2800.15C6056.451,2805.379 6057.846,2808.168 6062.726,2808.168C6075.625,2808.168 6111.183,2760.756 6111.183,2760.756C6098.285,2791.783 6075.625,2826.993 6047.039,2826.993C6028.911,2826.993 6022.636,2817.232 6022.636,2804.682C6022.636,2796.664 6027.168,2788.645 6032.745,2774.004C6051.571,2727.29 6070.744,2684.062 6070.744,2670.117C6070.744,2662.448 6068.653,2658.962 6063.423,2658.962C6049.827,2658.962 6015.315,2693.126 5964.069,2823.855L5929.905,2823.855L5975.922,2689.988C5980.105,2678.484 5988.709,2655.141 5979.985,2651.31C5948.385,2637.433 5921.099,2826.993 5852.861,2826.993C5834.385,2826.993 5828.11,2817.232 5828.11,2804.682C5828.11,2798.876 5830.303,2792.887 5833.499,2784.73ZM5782.441,2802.241C5803.01,2802.241 5839.963,2747.858 5853.21,2709.51C5857.045,2698.355 5859.833,2687.199 5859.833,2675.695C5859.833,2660.705 5855.65,2651.989 5844.146,2651.989C5813.119,2651.989 5770.937,2728.335 5770.937,2777.838C5770.937,2793.526 5774.075,2802.241 5782.441,2802.241Z"/>
            </g>
        </g>
    </g>
</svg>
