<?xml version="1.0" encoding="UTF-8" standalone="no"?>
<!DOCTYPE svg PUBLIC "-//W3C//DTD SVG 1.1//EN" "http://www.w3.org/Graphics/SVG/1.1/DTD/svg11.dtd">
<svg width="100%" height="100%" viewBox="0 0 4286 4685" version="1.1" xmlns="http://www.w3.org/2000/svg" xmlns:xlink="http://www.w3.org/1999/xlink" xml:space="preserve" xmlns:serif="http://www.serif.com/" style="fill-rule:evenodd;clip-rule:evenodd;stroke-linejoin:round;stroke-miterlimit:2;">
    <g id="Artboard1" transform="matrix(1,0,0,1,-0.760286,-0.269515)">
        <rect x="0.76" y="0.27" width="4285.679" height="4684.876" style="fill:none;"/>
        <clipPath id="_clip1">
            <rect x="0.76" y="0.27" width="4285.679" height="4684.876"/>
        </clipPath>
        <g clip-path="url(#_clip1)">
            <g transform="matrix(1.056304,0,0,1,0.760286,0.269515)">
                <rect x="0" y="0" width="4057.24" height="4685.145" style="fill:rgb(11,15,69);"/>
            </g>
            <g>
                <g transform="matrix(76.325938,-76.325938,1038.162969,1038.162969,-1219143.339872,-969947.360925)">
                    <path d="M1633,1056.316L1633,1057.146L1632.717,1057.157C1631.845,1057.196 1630.486,1057.247 1630.061,1057.279L1630,1057.283L1630,1056.44C1631.037,1056.397 1632.062,1056.355 1633,1056.316ZM1630,1055.802C1631.13,1055.753 1632.324,1055.698 1632.688,1055.671C1632.858,1055.659 1632.956,1055.649 1633,1055.64L1633,1055.912C1632.518,1055.932 1631.993,1055.953 1631.437,1055.976L1630,1056.029L1630,1055.802Z" style="fill:rgb(201,169,97);"/>
                </g>
                <g id="m" transform="matrix(9.552016,0,0,9.552016,-84533.984897,-21590.013839)">
                    <path d="M8986.229,2387.778C8995.686,2378.194 9005.664,2372.411 9015.537,2372.411C9028.14,2372.411 9034.092,2385.003 9034.092,2399.049C9034.092,2407.459 9031.749,2417.814 9028.42,2429.969C9026.765,2436.013 9024.865,2442.502 9022.889,2449.418L9004.474,2505.48C9009.211,2491.554 9013.762,2478.983 9018.157,2467.649L9029.393,2478.885C9015.258,2514.032 8998.366,2564.346 8978.779,2634.913L8944.471,2634.913L8990.681,2448.934L8992.487,2441.98C8996.169,2427.604 8999.784,2412.136 8999.784,2406.313C8999.784,2403.607 8999.46,2401.706 8998.869,2400.418C8998.36,2399.31 8997.653,2398.655 8996.783,2398.332L8986.229,2387.778ZM9032.421,2433.971C9055.125,2385.585 9074.037,2371.442 9094.306,2371.442C9107.959,2371.442 9115.661,2386.94 9115.661,2404.376C9115.661,2424.386 9101.756,2469.639 9093.42,2494.969L9091.81,2499.825L9093.491,2495.041C9126.571,2401.653 9152.663,2371.442 9179.376,2371.442C9195.83,2371.442 9204.232,2385.972 9204.232,2406.798C9204.232,2441.426 9179.716,2509.042 9162.59,2564.139L9161.522,2567.593C9158.721,2578.732 9153.47,2595.199 9153.47,2601.98L9153.481,2602.974C9153.639,2609.597 9155.432,2613.119 9159.771,2613.119C9160.837,2613.119 9161.921,2612.912 9163.021,2612.514L9176.502,2625.995C9168.828,2635.457 9158.435,2641.298 9144.368,2639.272C9126.003,2636.628 9119.512,2625.711 9119.512,2608.276C9119.512,2599.217 9122.521,2590.158 9126.658,2576.151C9127.608,2572.933 9128.618,2569.455 9129.664,2565.655C9132.285,2556.66 9134.912,2547.757 9137.493,2539.043C9153.536,2484.889 9167.823,2438.015 9167.823,2421.327C9167.823,2410.672 9165.372,2405.829 9160.471,2405.829C9150.906,2405.829 9130.304,2429.133 9102.369,2503.918C9099.634,2511.241 9096.828,2519.057 9093.956,2527.394C9092.591,2531.236 9091.213,2535.21 9089.822,2539.314C9080.866,2565.738 9071.35,2597.605 9061.048,2634.913L9026.74,2634.913L9055.097,2534.659C9057.295,2526.933 9059.554,2519.081 9061.789,2511.281C9065.482,2498.395 9069.112,2485.65 9072.299,2473.849C9078.551,2450.702 9083.103,2431.182 9083.103,2421.327C9083.103,2410.672 9080.653,2405.829 9075.401,2405.829C9069.033,2405.829 9058.551,2416.157 9044.062,2445.611L9032.421,2433.971ZM9184.452,2586.001C9189.226,2576.57 9193.836,2565.32 9197.991,2553.314C9197.991,2553.314 9197.289,2572.805 9191.719,2593.268L9184.452,2586.001ZM8971.476,2420.969C8959.344,2436.514 8947.621,2454.261 8947.621,2454.261C8952.775,2440.465 8958.97,2427.116 8965.848,2415.34L8971.476,2420.969Z" style="fill:rgb(242,238,229);"/>
                </g>
                <g transform="matrix(1,0,0,1,0.760286,0.269515)">
                    <path d="M0,373.912L0,0L84.043,0L1422.595,1338.552C1428.241,1350.854 1431.33,1369.011 1431.33,1394.86C1431.33,1450.482 1396.801,1598.231 1361.633,1735.545L0,373.912Z" style="fill:rgb(201,169,97);"/>
                </g>
                <g transform="matrix(88.235294,0,0,88.235294,-156836.669706,-92246.965779)">
                    <path d="M1796.813,1063.838L1801.563,1068.588C1801.218,1069.866 1800.825,1071.245 1800.425,1072.641L1795.599,1067.815L1796.214,1065.943C1796.428,1065.195 1796.633,1064.492 1796.813,1063.838Z" style="fill:rgb(201,169,97);"/>
                </g>
                <g transform="matrix(1,0,0,1,0.760286,0.269515)">
                    <path d="M2986.46,2902.417L4285.679,4201.635L4285.679,4659.591L2899.452,3273.364L2899.341,3263.866C2899.341,3199.098 2949.501,3041.806 2976.253,2935.402L2986.46,2902.417Z" style="fill:rgb(201,169,97);"/>
                </g>
            </g>
        </g>
    </g>
</svg>
